<svg width="38" height="34" viewBox="0 0 38 34" fill="none" xmlns="http://www.w3.org/2000/svg">
<path d="M36.6602 7.18594C36.0842 5.85235 35.2537 4.64386 34.2152 3.62812C33.176 2.60936 31.9506 1.79976 30.6059 1.24336C29.2114 0.664111 27.7158 0.367618 26.2059 0.371093C24.0875 0.371093 22.0207 0.951172 20.2246 2.04687C19.7949 2.30898 19.3867 2.59687 19 2.91055C18.6133 2.59687 18.2051 2.30898 17.7754 2.04687C15.9793 0.951172 13.9125 0.371093 11.7941 0.371093C10.2688 0.371093 8.79063 0.663281 7.39414 1.24336C6.04492 1.80195 4.82891 2.60547 3.78477 3.62812C2.74491 4.64271 1.91424 5.85149 1.33984 7.18594C0.742578 8.57383 0.4375 10.0477 0.4375 11.5645C0.4375 12.9953 0.729688 14.4863 1.30977 16.0031C1.79531 17.2707 2.49141 18.5855 3.38086 19.9133C4.79023 22.0145 6.72813 24.2059 9.13438 26.4273C13.1219 30.1098 17.0707 32.6535 17.2383 32.7566L18.2566 33.4098C18.7078 33.6977 19.2879 33.6977 19.7391 33.4098L20.7574 32.7566C20.925 32.6492 24.8695 30.1098 28.8613 26.4273C31.2676 24.2059 33.2055 22.0145 34.6148 19.9133C35.5043 18.5855 36.2047 17.2707 36.6859 16.0031C37.266 14.4863 37.5582 12.9953 37.5582 11.5645C37.5625 10.0477 37.2574 8.57383 36.6602 7.18594ZM19 30.0109C19 30.0109 3.70313 20.2098 3.70313 11.5645C3.70313 7.18594 7.32539 3.63672 11.7941 3.63672C14.9352 3.63672 17.6594 5.38984 19 7.95078C20.3406 5.38984 23.0648 3.63672 26.2059 3.63672C30.6746 3.63672 34.2969 7.18594 34.2969 11.5645C34.2969 20.2098 19 30.0109 19 30.0109Z" fill="#B94E4E" fill-opacity="0.91"/>
</svg>
