<svg width="34" height="34" viewBox="0 0 34 34" fill="none" xmlns="http://www.w3.org/2000/svg">
<path d="M13.3333 0.5C6.24567 0.5 0.5 6.24567 0.5 13.3333C0.5 20.421 6.24567 26.1667 13.3333 26.1667C16.4647 26.1667 19.3338 25.0456 21.5613 23.182L31.5438 33.1645C31.6502 33.2709 31.7766 33.3553 31.9156 33.4129C32.0547 33.4705 32.2037 33.5001 32.3542 33.5001C32.5047 33.5001 32.6537 33.4705 32.7927 33.4129C32.9318 33.3553 33.0581 33.2709 33.1645 33.1645C33.2709 33.0581 33.3553 32.9318 33.4129 32.7927C33.4705 32.6537 33.5001 32.5047 33.5001 32.3542C33.5001 32.2037 33.4705 32.0547 33.4129 31.9156C33.3553 31.7766 33.2709 31.6502 33.1645 31.5438L23.182 21.5613C25.1142 19.2554 26.1711 16.3418 26.1667 13.3333C26.1667 6.24567 20.421 0.5 13.3333 0.5ZM2.79167 13.3333C2.79167 7.51158 7.51158 2.79167 13.3333 2.79167C19.1551 2.79167 23.875 7.51158 23.875 13.3333C23.875 19.1551 19.1551 23.875 13.3333 23.875C7.51158 23.875 2.79167 19.1551 2.79167 13.3333Z" fill="#3B4E6F"/>
</svg>
